# xmcd
#
# Track frame offsets: 
#        150
#        6232
#        29569
#        49268
#        60572
#        75253
#        88457
#        107194
#        117919
#        133145
#        151882
#        166990
#        181520
#        213019
#        232022
#        257907
#        275338
#        291084
#        307839
#        325584
#
# Disc length: 4605 seconds
#
# Revision: 2
# Processed by: cddbd v1.5.2PL0 Copyright (c) Steve Scherf et al.
# Submitted via: ExactAudioCopy v0.99pb4
#
DISCID=0d11fb14
DTITLE=Various Artist - Masterpiece CD1 (Napoli)
DYEAR=2008
DGENRE=House
TTITLE0=François K - Crysal Wind (Soundscape)
TTITLE1=Dubfire - RibCage
TTITLE2=Shackleton - Blood On My Hands (Ricardo Villalobos Apocalypso 
TTITLE2=Now Remix)
TTITLE3=Jussi-Pekka - Dead Serious
TTITLE4=DIM - Sysiphos
TTITLE5=Audion - Noisier
TTITLE6=Martin Buttrich - Hunter
TTITLE7=Gabry Fasano - Time Blender
TTITLE8=Cobblestone Jazz - Put The Lime In The Coconut
TTITLE9=Michael de Hey vs Secret Cinema - Compound (MIRKO Remix)
TTITLE10=Rino Cerrone - Frame
TTITLE11=Rejected - Let's Go Juno
TTITLE12=Dreadmau5 - Not Exactly
TTITLE13=Digitalism - Jupiter Room (Martian Assault Mix)
TTITLE14=Phantom Power - Acid Uber Alles
TTITLE15=Beroshima - Horizon (Pig and Dan Remix)
TTITLE16=Gregor Tresher - A Thousand Nights
TTITLE17=Olivier Giacomotto - Gail in the O (John Acquaviva and Damon Je
TTITLE17=e Remix)
TTITLE18=Scuba ft. Lisa Shaw - Love for You (Nova Dream Sequence)
TTITLE19=Tom Middleton - Shinkansen
EXTD=YEAR: 2008
EXTT0=
EXTT1=
EXTT2=
EXTT3=
EXTT4=
EXTT5=
EXTT6=
EXTT7=
EXTT8=
EXTT9=
EXTT10=
EXTT11=
EXTT12=
EXTT13=
EXTT14=
EXTT15=
EXTT16=
EXTT17=
EXTT18=
EXTT19=
PLAYORDER=
